{"title":"Blow.(2001).[DVDRip]-[mkv]-[ShMee]-PR3DATOR-RG","uid":7160532,"size":698807092,"categoryP":"video","categoryS":"movies","magnet":"?xt=urn:btih:ed4294d4d4fe1569c3461fce8481d0ecb2d5954e&amp;dn=Blow.%282001%29.%5BDVDRip%5D-%5Bmkv%5D-%5BShMee%5D-PR3DATOR-RG&amp;tr=udp%3A%2F%2Ftracker.openbittorrent.com%3A80&amp;tr=udp%3A%2F%2Fopen.demonii.com%3A1337&amp;tr=udp%3A%2F%2Ftracker.coppersurfer.tk%3A6969&amp;tr=udp%3A%2F%2Fexodus.desync.com%3A6969","seeders":1,"leechers":0,"uploader":"TvTeam","files":8,"time":1333595066,"description":". \n &lt;a href=&quot;\nhttp://www.torrenting.com&quot; rel=&quot;nofollow&quot; target=&quot;_NEW&quot;&gt;\nhttp://www.torrenting.com&lt;/a&gt;          :     Once &amp; For all ;)\n\n\n               www . Torrenting . Com \n\n(((((((((((((= Enjoy No RAR releases =))))))))))))))))))))\n\n\n...................................NFO:....................................\n\n.[align=center]\n[IMG]http://i1127.photobucket.com/albums/l621/PR3D_PICs/coverdisk-16.jpg[/IMG]\n\n[url=http://www.imdb.com/title/tt0221027/]IMDb Link[/url]\n\n[IMG]http://i1127.photobucket.com/albums/l621/PR3D_PICs/INFO.png[/IMG]\n\nGeneral\nUnique ID                      : 54273931105533629110342643268120758423 (0x28D4C766BFC0213D294FEA46B21C4897)\nComplete name                  : G:RipsBlow.(2001).[DVDRip]-[mkv]-[ShMee]-PR3DATOR-RGBlow.(2001).[DVDRip]-[mkv]-[ShMee]-PR3DATOR-RG.mkv\nFormat                         : Matroska\nFormat version                 : Version 2\nFile size                      : 666 MiB\nDuration                       : 1h 58mn\nOverall bit rate               : 787 Kbps\nMovie name                     : Avidemux\nWriting application            : Lavf52.108.0\nWriting library                : Lavf52.108.0\nAUTHOR                         : Avidemux\n\nVideo\nID                             : 1\nFormat                         : AVC\nFormat/Info                    : Advanced Video Codec\nFormat profile                 : &lt;a class=&quot;__cf_email__&quot; href=&quot;/cdn-cgi/l/email-protection&quot; data-cfemail=&quot;a9e1c0cec1e9e59a8799&quot;&gt;[email&amp;#160;protected]&lt;/a&gt;&lt;script cf-hash='f9e31' type=&quot;text/javascript&quot;&gt;\n/* &lt;![CDATA[ */!function(){try{var t=&quot;currentScript&quot;in document?document.currentScript:function(){for(var t=document.getElementsByTagName(&quot;script&quot;),e=t.length;e--;)if(t[e].getAttribute(&quot;cf-hash&quot;))return t[e]}();if(t&amp;&amp;t.previousSibling){var e,r,n,i,c=t.previousSibling,a=c.getAttribute(&quot;data-cfemail&quot;);if(a){for(e=&quot;&quot;,r=parseInt(a.substr(0,2),16),n=2;a.length-n;n+=2)i=parseInt(a.substr(n,2),16)^r,e+=String.fromCharCode(i);e=document.createTextNode(e),c.parentNode.replaceChild(e,c)}}}catch(u){}}();/* ]]&gt; */&lt;/script&gt;\nFormat settings, CABAC         : Yes\nFormat settings, ReFrames      : 4 frames\nCodec ID                       : V_MPEG4/ISO/AVC\nDuration                       : 1h 58mn\nBit rate                       : 643 Kbps\nWidth                          : 720 pixels\nHeight                         : 306 pixels\nDisplay aspect ratio           : 2.35:1\nFrame rate mode                : Variable\nFrame rate                     : 25.000 fps\nColor space                    : YUV\nChroma subsampling             : 4:2:0\nBit depth                      : 8 bits\nScan type                      : Progressive\nBits/(Pixel*Frame)             : 0.117\nStream size                    : 545 MiB (82%)\nWriting library                : x264 core 115 r1947 b5a8ad7\nLanguage                       : English\n\nAudio\nID                             : 2\nFormat                         : AC-3\nFormat/Info                    : Audio Coding 3\nMode extension                 : CM (complete main)\nCodec ID                       : A_AC3\nDuration                       : 1h 58mn\nBit rate mode                  : Constant\nBit rate                       : 128 Kbps\nChannel(s)                     : 2 channels\nChannel positions              : Front: L R\nSampling rate                  : 48.0 KHz\nBit depth                      : 16 bits\nCompression mode               : Lossy\nDelay relative to video        : -40ms\nStream size                    : 108 MiB (16%)\nLanguage                       : English\n\n\n\n[IMG]http://i1127.photobucket.com/albums/l621/PR3D_PICs/SCREEN-1.png[/IMG]\n\n[IMG]http://i1127.photobucket.com/albums/l621/PR3D_PICs/screens-37.jpg[/IMG]\n\n[youtube]q8lGHQn_n9Y[/youtube]\n\n[IMG]http://i1127.photobucket.com/albums/l621/PR3D_PICs/ShMee-1.jpg[/IMG]\n\n[IMG]http://i1127.photobucket.com/albums/l621/PR3D_PICs/NEWGRSIGv3-1.png[/IMG]\n\n[IMG]http://i1127.photobucket.com/albums/l621/PR3D_PICs/GREET.png[/IMG]\n\n\n[/align]","torrent":{"xt":"urn:btih:ed4294d4d4fe1569c3461fce8481d0ecb2d5954e","amp;dn":"Blow.%282001%29.%5BDVDRip%5D-%5Bmkv%5D-%5BShMee%5D-PR3DATOR-RG","amp;tr":["udp%3A%2F%2Ftracker.openbittorrent.com%3A80","udp%3A%2F%2Fopen.demonii.com%3A1337","udp%3A%2F%2Ftracker.coppersurfer.tk%3A6969","udp%3A%2F%2Fexodus.desync.com%3A6969"],"infoHash":"ed4294d4d4fe1569c3461fce8481d0ecb2d5954e","infoHashBuffer":{"type":"Buffer","data":[237,66,148,212,212,254,21,105,195,70,31,206,132,129,208,236,178,213,149,78]},"announce":[],"urlList":[]}}